<svg width="130" height="100" viewBox="0 0 130 100" fill="none" xmlns="http://www.w3.org/2000/svg"><path d="M71.697 49.566H64.68c.666-4.372 4.344-6.053 7.347-6.053s6.2 3.15 6.013 6.726c-.668 12.78-12.36 13.79-16.703 12.78s-11.692-5.717-9.353-17.152c2.338-11.435 13.03-17.489 23.718-15.47 10.687 2.017 20.043 15.47 13.362 31.277s-25.72 17.825-37.08 11.771c-11.361-6.054-18.04-21.188-11.024-38.677C47.976 17.28 67.35 9.745 82.718 13.917c-5.01-4.371-20.043-7.062-31.735-2.69-11.692 4.373-29.346 17.49-26.089 44.395S51.651 93.29 70.995 90.599c19.344-2.69 33.072-19.17 34.408-37.668S94.079 22.462 80.049 19.97c-14.03-2.493-28.358 5.591-34.074 19.506-6.175 15.03 2.672 31.278 17.37 31.278S84.18 59.461 85.25 52.253 82.384 36.786 72.365 36.45s-13.73 7.063-14.398 10.427c-.668 3.365-.3 8.743 6.046 9.752 5.078.807 7.238-4.372 7.683-7.063" fill="#2AE7A8"/></svg>