<svg width="1em" height="1em" viewBox="0 0 24 24" fill="none" xmlns="http://www.w3.org/2000/svg"><path fill-rule="evenodd" clip-rule="evenodd" d="M13 16.001v2h1v1l1-.004V20h1v1h5v-1h-1v-1h-1v-2h-1v-.999h-1v-1h-1v-.999h-1v-1h-1v-1.997l1-.01V10h1V9h1V7h1V6h1V5h1V4h1v-.989L19 3v1h-1v1h-1v1.005L16 6v2h-1v1h-1v1h-1v1.005L12 11V8.999h-1.053v-1H10V6H9V5l-1 .003V4H7V3H2v1h1v1h1v2h1v1h1v.999h1v1h1v.999h1V13l-1 .011v.995H7v1H6v2H5v1H4v1H3v1H2v.989l2 .01v-1h1v-1h1V18l1 .006v-2h1v-1h1v-1h1V13l1 .006v1.996h1.053v1zm1-1.999h-1V12h-1v2.006l1-.004v1h1V17l1-.003v1L16 18v1h1v1h1v-2h-1v-1h-1v-.999h-1v-1h-1zm-3-4.004h-1v-1H9V7l-1 .003v-1L7 6V5H6V4H5v2h1v1h1v1h1v.999h1v1h1v1.993l1 .014z" fill="currentColor"/></svg>