<svg width="1em" height="1em" viewBox="0 0 224 224" fill="none" xmlns="http://www.w3.org/2000/svg"><g clip-path="url(#a)"><path fill-rule="evenodd" clip-rule="evenodd" d="M31.845 157.128c3.064 1.405 5.425 3.328 7.073 5.785 1.647 2.456 2.471 5.237 2.471 8.362v31.824c0 1.021-.512 1.527-1.517 1.527h-7.976c-1.015 0-1.517-.506-1.517-1.527v-2.386c0-.253-.06-.394-.191-.435-.13-.031-.281.02-.472.141-3.416 3.317-7.977 4.966-13.673 4.966-4.681 0-8.529-1.214-11.532-3.631S0 195.738 0 190.954c0-4.965 1.728-8.838 5.174-11.609 3.445-2.77 8.308-4.156 14.576-4.156h10.066q.573 0 .573-.577v-2.194c0-2.488-.744-4.409-2.23-5.784-1.487-1.365-3.687-2.053-6.6-2.053-2.22 0-4.05.394-5.506 1.193s-2.44 1.901-2.943 3.297c-.251.889-.824 1.304-1.708 1.244l-8.539-1.052c-.512-.06-.884-.203-1.135-.435-.251-.223-.352-.495-.281-.809.572-3.822 2.672-6.947 6.308-9.363q5.456-3.629 13.532-3.631c3.958 0 7.494.707 10.558 2.103m-4.791 36.981c2.21-1.659 3.325-3.761 3.325-6.31V183.4q0-.576-.573-.577H21.93c-3.355 0-6.017.638-7.976 1.912-1.96 1.274-2.944 3.094-2.944 5.451 0 2.042.764 3.619 2.28 4.732q2.276 1.668 5.787 1.668c3.104.011 5.756-.818 7.976-2.477m53.313-38.316h7.876c1.015 0 1.517.516 1.517 1.528v45.778c0 1.021-.512 1.527-1.517 1.527h-7.876c-1.014 0-1.517-.506-1.517-1.527v-2.488c0-.252-.08-.415-.24-.475-.162-.061-.302.03-.433.283-2.531 3.246-6.389 4.875-11.583 4.875-4.812 0-8.84-1.407-12.105-4.208s-4.892-6.785-4.892-11.942v-31.823c0-1.022.502-1.528 1.517-1.528h7.976c1.015 0 1.517.516 1.517 1.528v28.668c0 2.993.773 5.38 2.33 7.17 1.548 1.78 3.718 2.68 6.5 2.68 2.843 0 5.124-.89 6.831-2.68 1.708-1.78 2.562-4.177 2.562-7.17v-28.668c.02-1.022.523-1.528 1.537-1.528m56.98 0h-7.976c-1.015 0-1.517.506-1.537 1.548v1.718c0 .253-.061.415-.191.475-.121.062-.281 0-.472-.191-2.853-2.862-6.711-4.298-11.583-4.298-4.179 0-7.816 1.163-10.92 3.488s-5.284 5.431-6.55 9.315q-1.519 4.202-1.517 12.134 0 7.068 1.236 11.558c1.336 4.329 3.707 7.545 7.122 9.647 3.426 2.104 7.183 3.155 11.302 3.155 4.681 0 8.328-1.365 10.92-4.105.191-.192.341-.252.472-.192.131.061.191.222.191.475v.576c0 4.46-1.115 7.626-3.366 9.506-2.25 1.881-5.776 2.822-10.588 2.822-.824 0-2.31-.061-4.46-.192-.513-.071-.924.03-1.236.282-.311.254-.472.608-.472 1.053l-.281 7.068c0 1.083.442 1.659 1.326 1.719 1.838.192 3.646.284 5.414.284 7.344 0 13.301-1.71 17.852-5.158s6.831-9.152 6.831-17.11v-44.049c0-1.012-.502-1.528-1.517-1.528m-9.493 24.078c0 2.487-.05 4.287-.141 5.4a19 19 0 0 1-.522 3.115c-.502 2.032-1.517 3.691-3.034 4.964-1.517 1.275-3.506 1.912-5.977 1.912-2.341 0-4.35-.657-6.028-1.962a9.93 9.93 0 0 1-3.466-5.016c-.633-1.587-.944-4.358-.944-8.312 0-3.822.372-6.633 1.135-8.413.693-2.104 1.829-3.793 3.416-5.066q2.366-1.913 5.786-1.913 3.616 0 5.937 1.913c1.547 1.273 2.572 2.962 3.084 5.066.312 1.021.523 2.052.613 3.104.091 1.052.141 2.791.141 5.208m49.988-24.078h7.876c1.014 0 1.517.516 1.517 1.528v45.778c0 1.021-.513 1.527-1.517 1.527h-7.876c-1.015 0-1.517-.506-1.517-1.527v-2.488c0-.252-.081-.415-.241-.475-.161-.061-.302.03-.432.283-2.532 3.246-6.389 4.875-11.583 4.875-4.812 0-8.84-1.407-12.105-4.208s-4.893-6.785-4.893-11.942v-31.823c0-1.022.503-1.528 1.517-1.528h7.977c1.014 0 1.517.516 1.517 1.528v28.668c0 2.993.773 5.38 2.33 7.17 1.547 1.78 3.717 2.68 6.5 2.68 2.843 0 5.123-.89 6.831-2.68 1.708-1.78 2.562-4.177 2.562-7.17v-28.668c.02-1.022.532-1.528 1.537-1.528m46.1 2.386c.191-.89-.09-1.526-.854-1.911-1.517-.698-3.194-1.051-5.033-1.041-4.681 0-8.348 2.002-11.01 6.017-.131.252-.251.344-.382.282-.13-.06-.191-.222-.191-.475v-3.731c0-1.011-.502-1.527-1.516-1.527h-7.977c-1.015 0-1.517.506-1.517 1.527v45.768c0 1.021.502 1.528 1.517 1.528h7.977c1.004 0 1.516-.507 1.516-1.528v-26.666c0-2.801.895-5.086 2.663-6.836s3.978-2.69 6.64-2.821q.663-.091 1.808-.091c1.266 0 2.271.131 3.034.384.573.132 1.005.132 1.286 0 .281-.122.462-.434.522-.951z" fill="#fff"/><path d="m77.86 52.61 7.438 4.874a1.45 1.45 0 0 0 2.051-.495l24.018-41.086a.73.73 0 0 1 1.263 0l24.017 41.086a1.454 1.454 0 0 0 2.052.495l7.437-4.874c.671-.434.878-1.342.473-2.038L117.906 1.464A2.93 2.93 0 0 0 115.381 0h-6.766a2.93 2.93 0 0 0-2.525 1.464L77.387 50.572c-.404.696-.197 1.604.474 2.038" fill="#2AE7A8"/><path d="m165.587 83.052-11.422-19.545a1.454 1.454 0 0 0-2.052-.494l-7.437 4.874c-.671.433-.878 1.341-.473 2.038l6.529 11.17a.76.76 0 0 1-.237 1.019l-38.102 24.972a.7.7 0 0 1-.789 0L73.511 82.114a.77.77 0 0 1-.237-1.02l6.53-11.17c.404-.696.197-1.604-.474-2.038l-7.437-4.873a1.45 1.45 0 0 0-2.051.494L58.42 83.052c-.819 1.392-.405 3.198.937 4.076l51.063 33.479a2.88 2.88 0 0 0 3.176 0l51.063-33.479c1.322-.877 1.736-2.684.928-4.076" fill="#fff"/></g><defs><clipPath id="a"><path fill="#fff" d="M0 0h224v224H0z"/></clipPath></defs></svg>