<svg width="130" height="100" viewBox="0 0 130 100" fill="none" xmlns="http://www.w3.org/2000/svg"><path d="M122.554 42.635c-1.99-4.77-6.595-7.793-11.239-10.353.429-.93.702-1.938.702-3.024 0-4.033-3.278-7.29-7.337-7.29s-7.337 3.257-7.337 7.29 3.278 7.29 7.337 7.29c1.834 0 3.474-.737 4.761-1.862 3.981 4.11 8.04 9.772-4.566 15.51l-.897-2.442c-1.952 0-5.893 1.938-5.893 1.938l1.327-3.877c-3.279-1.939-7.845-1.319-7.845-1.319l2.615-3.257c-2.732-2.714-9.054-2.249-11.123-2.016.508-.233 1.288-.892 2.615-2.52-2.888-1.164-5.151-1.396-6.908-1.164l-5.776 4.653-3.785 27.647-10.576-7.716c-4.567 4.42-8.977 7.794-13.152 10.081 9.054 2.327 32.782 6.553 58.579-4.614v-.039c10.381-4.42 23.026-12.098 18.498-22.916M77.83 64c-1.405-5.777-.352-13.028 2.615-18.185 1.405 5.777.39 12.99-2.615 18.185m11.786 0c-1.366-3.722-.312-8.026 2.615-10.702 1.366 3.684.312 8.027-2.615 10.702" fill="#2AE7A8"/><path fill-rule="evenodd" clip-rule="evenodd" d="m58.863 55.354 8.078 5.893 3.083-22.76 12.84-10.354S35.408 8.785 28.89 7.621c-6.517-1.124-16.742 5.817-20.957 10.353-3.474 3.723.273 16.325 1.756 20.823.273.891 1.249 1.357 2.146 1.047.738-.184 1.246-.838 1.288-1.59.084-2.003 1.854-4.305 3.747-4.963l10.888-3.8a4.48 4.48 0 0 1 4.176.62l17.523 12.757c2.348 1.676 2.45 5.487.273 7.367l-.039.039c-2.548 2.25-15.298 12.37-15.298 12.37s-3.477-2.628-4.722-5.003c-3.352-6.391 2.536-13.649 6.049-17.449.468-.504.39-1.318-.156-1.744l-5.854-4.266c-.312-.232-.742-.271-1.093-.155l-9.99 3.451c-.677.269-1.029 1.042-.664 1.706l5.073 8.764c.195.348.195.736.04 1.124-1.097 2.215-5 10.414-3.505 13.55.092.192.203.376.304.564 4.253 7.981 14.91 8.078 22.357 5.08 4.703-2.219 10.22-6.234 16.63-12.913m-6.088-30.4c-2.225 0-4.02 1.784-4.02 3.994s1.795 3.993 4.02 3.993 4.02-1.783 4.02-3.993-1.796-3.994-4.02-3.994" fill="#2AE7A8"/><path d="M41.067 72.26c-2.472 1.233-4.297 1.805-7.689 1.512l-.351 17.06h15.142l1.171-9.228c1.795.776 3.552 1.59 5.581 1.861l-.039 9.035h15.142c.168-2.933.478-5.807.82-8.724 4.332-.427 8.586-1.396 12.723-3.025 1.56 3.723 3.512 9.461 3.512 9.461h16.391l.508-21.093c-19.097 7.896-43.123 10.189-62.911 3.14" fill="#2AE7A8"/></svg>